<?xml version="1.0" encoding="UTF-8" standalone="no"?>
<svg
   xmlns:dc="http://purl.org/dc/elements/1.1/"
   xmlns:cc="http://creativecommons.org/ns#"
   xmlns:rdf="http://www.w3.org/1999/02/22-rdf-syntax-ns#"
   xmlns:svg="http://www.w3.org/2000/svg"
   xmlns="http://www.w3.org/2000/svg"
   xmlns:sodipodi="http://sodipodi.sourceforge.net/DTD/sodipodi-0.dtd"
   xmlns:inkscape="http://www.inkscape.org/namespaces/inkscape"
   version="1.1"
   x="0px"
   y="0px"
   width="264.125"
   height="261.642"
   viewBox="0 0 264.125 261.642"
   xml:space="preserve"
   id="svg2"
   inkscape:version="0.47 r22583"
   sodipodi:docname="refresh.svg"><metadata
   id="metadata10"><rdf:RDF><cc:Work
       rdf:about=""><dc:format>image/svg+xml</dc:format><dc:type
         rdf:resource="http://purl.org/dc/dcmitype/StillImage" /></cc:Work></rdf:RDF></metadata><defs
   id="defs8"><inkscape:perspective
     sodipodi:type="inkscape:persp3d"
     inkscape:vp_x="0 : 240 : 1"
     inkscape:vp_y="0 : 1000 : 0"
     inkscape:vp_z="480 : 240 : 1"
     inkscape:persp3d-origin="240 : 160 : 1"
     id="perspective12" /></defs><sodipodi:namedview
   pagecolor="#ffffff"
   bordercolor="#666666"
   borderopacity="1"
   objecttolerance="10"
   gridtolerance="10"
   guidetolerance="10"
   inkscape:pageopacity="0"
   inkscape:pageshadow="2"
   inkscape:window-width="640"
   inkscape:window-height="504"
   id="namedview6"
   showgrid="false"
   inkscape:zoom="0.49166667"
   inkscape:cx="132.063"
   inkscape:cy="130.822"
   inkscape:window-x="0"
   inkscape:window-y="24"
   inkscape:window-maximized="0"
   inkscape:current-layer="svg2" />
  <path
   d="m 52.532,133.014 c 0,-44.414 36.023,-80.438 80.438,-80.438 19.188,0 36.711,6.844 50.5,18.078 l -31.627,30.096 99.945,11.367 0.805,-107.242 -30.766,29.289 C 198.281,12.961 167.203,0 133.023,0 59.554,0 0,59.562 0,133.016 c 0,2.742 0.242,-2.266 0.414,0.445 l 53.68,7.555 c -1.001,-5.088 -1.562,-2.634 -1.562,-8.002 z m 211.178,-4.819 -53.681,-7.555 c 1.017,5.086 1.556,2.617 1.556,7.992 0,44.414 -36.008,80.431 -80.43,80.431 -19.133,0 -36.602,-6.798 -50.383,-17.97 l 31.595,-30.078 -99.93,-11.366 -0.812,107.25 30.789,-29.312 c 23.531,21.141 54.57,34.055 88.688,34.055 73.468,0 133.023,-59.555 133.023,-133.008 0,-2.736 -0.25,2.271 -0.415,-0.439 z"
   id="path4" />
</svg>