<?xml version="1.0" encoding="UTF-8" standalone="no"?>
<svg
   xmlns:dc="http://purl.org/dc/elements/1.1/"
   xmlns:cc="http://creativecommons.org/ns#"
   xmlns:rdf="http://www.w3.org/1999/02/22-rdf-syntax-ns#"
   xmlns:svg="http://www.w3.org/2000/svg"
   xmlns="http://www.w3.org/2000/svg"
   xmlns:xlink="http://www.w3.org/1999/xlink"
   xmlns:sodipodi="http://sodipodi.sourceforge.net/DTD/sodipodi-0.dtd"
   xmlns:inkscape="http://www.inkscape.org/namespaces/inkscape"
   width="101.13653"
   height="100.5601"
   id="svg2"
   version="1.1"
   inkscape:version="0.47 r22583"
   sodipodi:docname="wolf-paw.svg">
  <sodipodi:namedview
     pagecolor="#ffffff"
     bordercolor="#666666"
     borderopacity="1"
     objecttolerance="10"
     gridtolerance="10"
     guidetolerance="10"
     inkscape:pageopacity="0"
     inkscape:pageshadow="2"
     inkscape:window-width="1920"
     inkscape:window-height="1029"
     id="namedview185"
     showgrid="false"
     inkscape:zoom="1.668772"
     inkscape:cx="282.61546"
     inkscape:cy="-86.196699"
     inkscape:window-x="0"
     inkscape:window-y="24"
     inkscape:window-maximized="1"
     inkscape:current-layer="svg2" />
  <title
     id="title4">license paw print</title>
  <defs
     id="defs6">
    <inkscape:perspective
       sodipodi:type="inkscape:persp3d"
       inkscape:vp_x="0 : 200 : 1"
       inkscape:vp_y="0 : 1000 : 0"
       inkscape:vp_z="400 : 200 : 1"
       inkscape:persp3d-origin="200 : 133.33333 : 1"
       id="perspective187" />
    <linearGradient
       id="linearGradient15338">
      <stop
         id="stop15340"
         offset="0"
         stop-color="#ececec" />
      <stop
         offset="0.388889"
         id="stop15342"
         stop-opacity="0.908163"
         stop-color="#e2e2e2" />
      <stop
         id="stop15344"
         offset="1"
         stop-color="#b3b3b3" />
    </linearGradient>
    <linearGradient
       id="linearGradient5942">
      <stop
         offset="0"
         id="stop5944"
         stop-color="#000000" />
      <stop
         id="stop5950"
         offset="0.388889"
         stop-opacity="0.908163"
         stop-color="#e2e2e2" />
      <stop
         offset="1"
         id="stop5946"
         stop-color="#000000" />
    </linearGradient>
    <linearGradient
       id="linearGradient4929">
      <stop
         offset="0"
         id="stop4931"
         stop-color="#0b0b0b" />
      <stop
         offset="1"
         id="stop4933"
         stop-color="#878787" />
    </linearGradient>
    <linearGradient
       id="linearGradient4700">
      <stop
         offset="0"
         id="stop4702"
         stop-color="#0b0b0b" />
      <stop
         offset="1"
         id="stop4704"
         stop-color="#878787" />
    </linearGradient>
    <linearGradient
       id="linearGradient7111">
      <stop
         offset="0"
         id="stop7113"
         stop-opacity="0.408163"
         stop-color="#ffffff" />
      <stop
         offset="1"
         id="stop7115"
         stop-opacity="0"
         stop-color="#ffffff" />
    </linearGradient>
    <linearGradient
       id="linearGradient4750">
      <stop
         offset="0"
         id="stop4752"
         stop-opacity="0.408163"
         stop-color="#ffffff" />
      <stop
         offset="1"
         id="stop4754"
         stop-opacity="0"
         stop-color="#ffffff" />
    </linearGradient>
    <linearGradient
       id="linearGradient4783">
      <stop
         offset="0"
         id="stop4785"
         stop-opacity="0.408163"
         stop-color="#ffffff" />
      <stop
         offset="1"
         id="stop4787"
         stop-opacity="0"
         stop-color="#ffffff" />
    </linearGradient>
    <linearGradient
       id="linearGradient4816">
      <stop
         offset="0"
         id="stop4818"
         stop-opacity="0.408163"
         stop-color="#ffffff" />
      <stop
         offset="1"
         id="stop4820"
         stop-opacity="0"
         stop-color="#ffffff" />
    </linearGradient>
    <linearGradient
       id="linearGradient5942-1">
      <stop
         offset="0"
         id="stop5944-7"
         stop-color="#000000" />
      <stop
         id="stop5950-4"
         offset="0.388889"
         stop-opacity="0.908163"
         stop-color="#e2e2e2" />
      <stop
         offset="1"
         id="stop5946-0"
         stop-color="#000000" />
    </linearGradient>
    <linearGradient
       id="linearGradient4929-9">
      <stop
         offset="0"
         id="stop4931-4"
         stop-color="#0b0b0b" />
      <stop
         offset="1"
         id="stop4933-8"
         stop-color="#878787" />
    </linearGradient>
    <linearGradient
       id="linearGradient7111-1">
      <stop
         offset="0"
         id="stop7113-5"
         stop-opacity="0.408163"
         stop-color="#ffffff" />
      <stop
         offset="1"
         id="stop7115-2"
         stop-opacity="0"
         stop-color="#ffffff" />
    </linearGradient>
    <linearGradient
       id="linearGradient5497">
      <stop
         offset="0"
         id="stop5499"
         stop-opacity="0.408163"
         stop-color="#ffffff" />
      <stop
         offset="1"
         id="stop5501"
         stop-opacity="0"
         stop-color="#ffffff" />
    </linearGradient>
    <linearGradient
       id="linearGradient5530">
      <stop
         offset="0"
         id="stop5532"
         stop-opacity="0.408163"
         stop-color="#ffffff" />
      <stop
         offset="1"
         id="stop5534"
         stop-opacity="0"
         stop-color="#ffffff" />
    </linearGradient>
    <linearGradient
       id="linearGradient5563">
      <stop
         offset="0"
         id="stop5565"
         stop-opacity="0.408163"
         stop-color="#ffffff" />
      <stop
         offset="1"
         id="stop5567"
         stop-opacity="0"
         stop-color="#ffffff" />
    </linearGradient>
    <linearGradient
       id="linearGradient10523">
      <stop
         offset="0"
         id="stop10525"
         stop-opacity="0.204082"
         stop-color="#1b1717" />
      <stop
         id="stop10533"
         offset="0.5"
         stop-opacity="0.72449"
         stop-color="#e6e6e6" />
      <stop
         offset="1"
         id="stop10527"
         stop-opacity="0"
         stop-color="#e6e6e6" />
    </linearGradient>
    <linearGradient
       id="linearGradient3528">
      <stop
         id="stop3530"
         offset="0"
         stop-color="#333333" />
      <stop
         id="stop3532"
         offset="1"
         stop-color="#808080" />
    </linearGradient>
    <linearGradient
       id="linearGradient5958">
      <stop
         id="stop5960"
         offset="0"
         stop-color="#333333" />
      <stop
         id="stop5962"
         offset="1"
         stop-color="#808080" />
    </linearGradient>
    <linearGradient
       id="linearGradient5969">
      <stop
         id="stop5971"
         offset="0"
         stop-color="#333333" />
      <stop
         id="stop5973"
         offset="1"
         stop-color="#808080" />
    </linearGradient>
    <linearGradient
       id="linearGradient3274">
      <stop
         offset="0"
         id="stop3276"
         stop-color="#2d2929" />
      <stop
         offset="1"
         id="stop3278"
         stop-color="#595959" />
    </linearGradient>
    <linearGradient
       xlink:href="#linearGradient13578"
       id="linearGradient13584"
       x1="-10.606602"
       y1="-694.19159"
       x2="-9.1923876"
       y2="-650.35095"
       gradientUnits="userSpaceOnUse"
       gradientTransform="translate(-10,-35)" />
    <linearGradient
       id="linearGradient13578">
      <stop
         offset="0"
         id="stop13580"
         stop-opacity="0"
         stop-color="#000000" />
      <stop
         id="stop13586"
         offset="0.5"
         stop-opacity="0.360825"
         stop-color="#000000" />
      <stop
         offset="1"
         id="stop13582"
         stop-opacity="0"
         stop-color="#000000" />
    </linearGradient>
    <linearGradient
       id="linearGradient6199">
      <stop
         offset="0"
         id="stop6201"
         stop-color="#000000" />
      <stop
         offset="1"
         id="stop6203"
         stop-color="#999999" />
    </linearGradient>
    <linearGradient
       id="linearGradient7111-3">
      <stop
         offset="0"
         id="stop7113-2"
         stop-opacity="0.408163"
         stop-color="#ffffff" />
      <stop
         offset="1"
         id="stop7115-21"
         stop-opacity="0"
         stop-color="#ffffff" />
    </linearGradient>
    <linearGradient
       id="linearGradient7256">
      <stop
         offset="0"
         id="stop7258"
         stop-color="#112b00" />
      <stop
         offset="1"
         id="stop7260"
         stop-color="#66ff00" />
    </linearGradient>
    <linearGradient
       id="linearGradient7111-18">
      <stop
         id="stop7113-9"
         offset="0"
         stop-opacity="0.408163"
         stop-color="#ffffff" />
      <stop
         id="stop7115-27"
         offset="1"
         stop-opacity="0"
         stop-color="#ffffff" />
    </linearGradient>
    <linearGradient
       id="linearGradient7228">
      <stop
         id="stop7230"
         offset="0"
         stop-color="#dbb10e" />
      <stop
         id="stop7232"
         offset="1"
         stop-color="#f5ff00" />
    </linearGradient>
    <linearGradient
       id="linearGradient7111-4">
      <stop
         id="stop7113-1"
         offset="0"
         stop-opacity="0.408163"
         stop-color="#ffffff" />
      <stop
         id="stop7115-1"
         offset="1"
         stop-opacity="0"
         stop-color="#ffffff" />
    </linearGradient>
    <linearGradient
       id="linearGradient7199">
      <stop
         offset="0"
         id="stop7201"
         stop-color="#550000" />
      <stop
         offset="1"
         id="stop7203"
         stop-color="#ff0000" />
    </linearGradient>
    <linearGradient
       id="linearGradient7111-42">
      <stop
         id="stop7113-7"
         offset="0"
         stop-opacity="0.408163"
         stop-color="#ffffff" />
      <stop
         id="stop7115-7"
         offset="1"
         stop-opacity="0"
         stop-color="#ffffff" />
    </linearGradient>
    <linearGradient
       id="linearGradient7171">
      <stop
         id="stop7173"
         offset="0"
         stop-color="#00112b" />
      <stop
         id="stop7175"
         offset="1"
         stop-color="#0055d4" />
    </linearGradient>
    <linearGradient
       id="linearGradient7111-6">
      <stop
         id="stop7113-50"
         offset="0"
         stop-opacity="0.408163"
         stop-color="#ffffff" />
      <stop
         id="stop7115-28"
         offset="1"
         stop-opacity="0"
         stop-color="#ffffff" />
    </linearGradient>
    <linearGradient
       y2="338.81863"
       x2="300.26785"
       y1="286.66653"
       x1="255.31609"
       gradientTransform="matrix(2.77539,0,0,2.77539,-609.283,-63.5846)"
       gradientUnits="userSpaceOnUse"
       id="linearGradient13463-6"
       xlink:href="#linearGradient4148-5" />
    <linearGradient
       id="linearGradient4148-5">
      <stop
         id="stop4150-09"
         offset="0"
         stop-color="#ffffff" />
      <stop
         id="stop4152-0"
         offset="1"
         stop-opacity="0"
         stop-color="#ffffff" />
    </linearGradient>
    <radialGradient
       r="53.035713"
       fy="386.57211"
       fx="312.78131"
       cy="386.57211"
       cx="312.78131"
       gradientTransform="matrix(-0.593266,-0.593266,0.715046,-0.715049,243.27,849.034)"
       gradientUnits="userSpaceOnUse"
       id="radialGradient8431-0"
       xlink:href="#linearGradient7111-61" />
    <linearGradient
       id="linearGradient7111-61">
      <stop
         id="stop7113-3"
         offset="0"
         stop-opacity="0.408163"
         stop-color="#ffffff" />
      <stop
         id="stop7115-8"
         offset="1"
         stop-opacity="0"
         stop-color="#ffffff" />
    </linearGradient>
    <linearGradient
       y2="391.44925"
       x2="341.99622"
       y1="300.86383"
       x1="275.60828"
       gradientUnits="userSpaceOnUse"
       id="linearGradient8429-9"
       xlink:href="#linearGradient7228-3" />
    <linearGradient
       id="linearGradient7228-3">
      <stop
         id="stop7230-4"
         offset="0"
         stop-color="#dbb10e" />
      <stop
         id="stop7232-4"
         offset="1"
         stop-color="#f5ff00" />
    </linearGradient>
    <linearGradient
       y2="367.88477"
       x2="315.47369"
       y1="287.49377"
       x1="241.40979"
       gradientUnits="userSpaceOnUse"
       id="linearGradient8427-6"
       xlink:href="#linearGradient4156-61" />
    <linearGradient
       id="linearGradient4156-61">
      <stop
         id="stop4158-84"
         offset="0"
         stop-color="#ffffff" />
      <stop
         id="stop4160-9"
         offset="1"
         stop-opacity="0"
         stop-color="#ffffff" />
    </linearGradient>
    <linearGradient
       y2="391.44925"
       x2="341.99622"
       y1="300.86383"
       x1="275.60828"
       gradientUnits="userSpaceOnUse"
       id="linearGradient3654"
       xlink:href="#linearGradient7256-6" />
    <linearGradient
       id="linearGradient7256-6">
      <stop
         offset="0"
         id="stop7258-3"
         stop-color="#112b00" />
      <stop
         offset="1"
         id="stop7260-7"
         stop-color="#66ff00" />
    </linearGradient>
    <radialGradient
       r="53.035713"
       fy="386.57211"
       fx="312.78131"
       cy="386.57211"
       cx="312.78131"
       gradientTransform="matrix(-0.593266,-0.593266,0.715046,-0.715049,243.27,849.034)"
       gradientUnits="userSpaceOnUse"
       id="radialGradient3656"
       xlink:href="#linearGradient7111-8" />
    <linearGradient
       id="linearGradient7111-8">
      <stop
         id="stop7113-8"
         offset="0"
         stop-opacity="0.408163"
         stop-color="#ffffff" />
      <stop
         id="stop7115-29"
         offset="1"
         stop-opacity="0"
         stop-color="#ffffff" />
    </linearGradient>
    <linearGradient
       y2="338.81863"
       x2="300.26785"
       y1="286.66653"
       x1="255.31609"
       gradientTransform="matrix(0.287379,0,0,0.287379,-571.764,-2.38954)"
       gradientUnits="userSpaceOnUse"
       id="linearGradient3659"
       xlink:href="#linearGradient4148" />
    <linearGradient
       id="linearGradient4148">
      <stop
         id="stop4150"
         offset="0"
         stop-color="#ffffff" />
      <stop
         id="stop4152"
         offset="1"
         stop-opacity="0"
         stop-color="#ffffff" />
    </linearGradient>
    <linearGradient
       y2="367.88477"
       x2="315.47369"
       y1="287.49377"
       x1="241.40979"
       gradientUnits="userSpaceOnUse"
       id="linearGradient3652"
       xlink:href="#linearGradient4156" />
    <linearGradient
       id="linearGradient4156">
      <stop
         id="stop4158"
         offset="0"
         stop-color="#ffffff" />
      <stop
         id="stop4160"
         offset="1"
         stop-opacity="0"
         stop-color="#ffffff" />
    </linearGradient>
    <linearGradient
       y2="367.88477"
       x2="315.47369"
       y1="287.49377"
       x1="241.40979"
       gradientUnits="userSpaceOnUse"
       id="linearGradient6947"
       xlink:href="#linearGradient4156" />
    <linearGradient
       y2="367.88477"
       x2="315.47369"
       y1="287.49377"
       x1="241.40979"
       gradientUnits="userSpaceOnUse"
       id="linearGradient3628"
       xlink:href="#linearGradient4156-1" />
    <linearGradient
       id="linearGradient4156-1">
      <stop
         id="stop4158-3"
         offset="0"
         stop-color="#ffffff" />
      <stop
         id="stop4160-5"
         offset="1"
         stop-opacity="0"
         stop-color="#ffffff" />
    </linearGradient>
    <linearGradient
       y2="391.44925"
       x2="341.99622"
       y1="300.86383"
       x1="275.60828"
       gradientUnits="userSpaceOnUse"
       id="linearGradient3630"
       xlink:href="#linearGradient7256-4" />
    <linearGradient
       id="linearGradient7256-4">
      <stop
         offset="0"
         id="stop7258-0"
         stop-color="#112b00" />
      <stop
         offset="1"
         id="stop7260-76"
         stop-color="#66ff00" />
    </linearGradient>
    <radialGradient
       r="53.035713"
       fy="386.57211"
       fx="312.78131"
       cy="386.57211"
       cx="312.78131"
       gradientTransform="matrix(-0.593266,-0.593266,0.715046,-0.715049,243.27,849.034)"
       gradientUnits="userSpaceOnUse"
       id="radialGradient3632"
       xlink:href="#linearGradient7111-36" />
    <linearGradient
       id="linearGradient7111-36">
      <stop
         id="stop7113-15"
         offset="0"
         stop-opacity="0.408163"
         stop-color="#ffffff" />
      <stop
         id="stop7115-4"
         offset="1"
         stop-opacity="0"
         stop-color="#ffffff" />
    </linearGradient>
    <linearGradient
       y2="338.81863"
       x2="300.26785"
       y1="286.66653"
       x1="255.31609"
       gradientTransform="matrix(0.287379,0,0,0.287379,-617.764,-2.38954)"
       gradientUnits="userSpaceOnUse"
       id="linearGradient3634"
       xlink:href="#linearGradient4148-2" />
    <linearGradient
       id="linearGradient4148-2">
      <stop
         id="stop4150-0"
         offset="0"
         stop-color="#ffffff" />
      <stop
         id="stop4152-9"
         offset="1"
         stop-opacity="0"
         stop-color="#ffffff" />
    </linearGradient>
    <linearGradient
       xlink:href="#linearGradient3780"
       id="linearGradient7176"
       gradientUnits="userSpaceOnUse"
       gradientTransform="matrix(1.72594,0,0,1.72594,1184.52,1688.67)"
       x1="-953.89557"
       y1="-353.32162"
       x2="-917.46674"
       y2="-325.32162" />
    <linearGradient
       id="linearGradient3780">
      <stop
         offset="0"
         id="stop3782"
         stop-color="#666666" />
      <stop
         offset="1"
         id="stop3784"
         stop-color="#ffffff" />
    </linearGradient>
    <linearGradient
       xlink:href="#linearGradient7256-7"
       id="linearGradient7152"
       gradientUnits="userSpaceOnUse"
       gradientTransform="translate(148.792,-34.7292)"
       x1="-953.89557"
       y1="-353.32162"
       x2="-917.46674"
       y2="-325.32162" />
    <linearGradient
       id="linearGradient7256-7">
      <stop
         offset="0"
         id="stop7258-4"
         stop-color="#112b00" />
      <stop
         offset="1"
         id="stop7260-78"
         stop-color="#66ff00" />
    </linearGradient>
    <linearGradient
       xlink:href="#linearGradient4156-3"
       id="linearGradient7154"
       gradientUnits="userSpaceOnUse"
       gradientTransform="matrix(0.965852,0,0,0.718588,115.944,-138.076)"
       x1="-948.25"
       y1="-370.65112"
       x2="-948.25"
       y2="-333.08163" />
    <linearGradient
       id="linearGradient4156-3">
      <stop
         id="stop4158-7"
         offset="0"
         stop-color="#ffffff" />
      <stop
         id="stop4160-1"
         offset="1"
         stop-opacity="0"
         stop-color="#ffffff" />
    </linearGradient>
    <linearGradient
       xlink:href="#linearGradient3780-3"
       id="linearGradient7124"
       gradientUnits="userSpaceOnUse"
       gradientTransform="matrix(1.72594,0,0,1.72594,1260.02,1689.17)"
       x1="-953.89557"
       y1="-353.32162"
       x2="-917.46674"
       y2="-325.32162" />
    <linearGradient
       id="linearGradient3780-3">
      <stop
         offset="0"
         id="stop3782-6"
         stop-color="#666666" />
      <stop
         offset="1"
         id="stop3784-3"
         stop-color="#ffffff" />
    </linearGradient>
    <linearGradient
       xlink:href="#linearGradient7199-5"
       id="linearGradient7120"
       gradientUnits="userSpaceOnUse"
       gradientTransform="matrix(1.37287,0,0,1.37287,1646.43,-630.517)"
       x1="-953.89557"
       y1="-353.32162"
       x2="-917.46674"
       y2="-325.32162" />
    <linearGradient
       id="linearGradient7199-5">
      <stop
         offset="0"
         id="stop7201-2"
         stop-color="#550000" />
      <stop
         offset="1"
         id="stop7203-8"
         stop-color="#ff0000" />
    </linearGradient>
    <linearGradient
       xlink:href="#linearGradient4156-0"
       id="linearGradient7117"
       gradientUnits="userSpaceOnUse"
       gradientTransform="matrix(1.32599,0,0,0.986531,1601.33,-772.398)"
       x1="-948.25"
       y1="-370.65112"
       x2="-948.25"
       y2="-333.08163" />
    <linearGradient
       id="linearGradient4156-0">
      <stop
         id="stop4158-72"
         offset="0"
         stop-color="#ffffff" />
      <stop
         id="stop4160-2"
         offset="1"
         stop-opacity="0"
         stop-color="#ffffff" />
    </linearGradient>
  </defs>
  <metadata
     id="metadata4893">image/svg+xml<rdf:RDF>
  <cc:Work
     rdf:about="">
    <dc:format>image/svg+xml</dc:format>
    <dc:type
       rdf:resource="http://purl.org/dc/dcmitype/StillImage" />
  </cc:Work>
</rdf:RDF>
</metadata>
  <g
     id="g178"
     transform="matrix(0.43316807,0,0,0.33520127,-35.667059,-15.081048)">
    <title
       id="title180">Layer 1</title>
    <g
       id="layer1">
      <g
         id="text11467"
         display="inline"
         font-weight="normal"
         font-style="normal"
         font-size="225.160095px"
         style="font-size:225.16009521px;font-style:normal;font-weight:normal;fill:#000000;display:inline;font-family:Eras Bold ITC">
        <path
           d="m 167.046,44.991032 -5.611,40.607967 -5.12,6.189018 -0.947,0.859993 -2.297,2.646973 -2.121,3.051025 -1.96401,3.401982 -1.806,3.75201 -1.57799,4.04999 -1.403,4.34802 -1.17401,4.59399 -0.91198,4.857 -0.70201,5.04999 -0.403,5.26001 -0.158,5.38299 0.158,5.36499 0.403,5.26001 0.70201,5.04999 0.91198,4.857 1.17401,4.59405 1.403,4.34796 1.57799,4.05103 1.806,3.76898 1.96401,3.38397 2.121,3.05103 2.297,2.64801 2.41999,2.20898 2.56002,1.789 1.29699,0.70099 1.351,0.59601 1.385,0.474 1.367,0.33301 1.403,0.19299 1.43801,0.07 1.41999,-0.07 1.403,-0.19299 1.385,-0.33301 1.36799,-0.474 1.35001,-0.59601 1.315,-0.70099 2.54199,-1.789 2.42002,-2.20898 2.29699,-2.64801 2.12101,-3.05103 1.99899,-3.38397 1.771,-3.76898 1.596,-4.05103 1.402,-4.34796 1.158,-4.59405 0.929,-4.857 0.68399,-5.04999 0.33301,-4.20801 -0.438,0.07 c 0.74099,-15.044 -1,-27.98498 -7.47,-43.448 l -2.823,-4.979976 -1.262,-1.80603 -2.29699,-2.64801 -2.42002,-2.208984 -2.54199,-1.787956 -1.315,-0.702034 -1.017,-0.455017 -2.209,-4.593994 -5.24299,-37.907955 z m 67.33001,3.067989 -8.46901,42.958008 -1.29801,0.700989 -2.55899,1.789001 -2.41999,2.208984 -2.29702,2.64801 -1.24499,1.804997 -2.84,4.97998 c -4.877,13.953 -7.84399,28.32904 -7.47,43.44903 l -0.438,-0.07 0.33301,4.20801 0.68399,5.04999 0.929,4.857 1.175,4.59301 1.403,4.349 1.578,4.04999 1.788,3.77002 1.981,3.38397 2.12199,3.05103 2.29702,2.64697 2.41999,2.21002 2.55899,1.78797 1.29801,0.70099 1.35,0.59704 1.368,0.47296 1.38499,0.33301 1.403,0.19299 1.42,0.07 1.43801,-0.07 1.402,-0.19299 1.385,-0.33301 1.368,-0.47296 1.35,-0.59704 1.29801,-0.70099 2.55999,-1.78797 2.41899,-2.21002 2.29702,-2.64697 2.12199,-3.05103 1.96401,-3.38397 1.806,-3.77002 1.578,-4.04999 1.40198,-4.349 1.17502,-4.59301 0.92999,-4.857 0.68301,-5.04999 0.40399,-5.26001 0.15702,-5.38299 -0.15702,-5.36603 -0.40399,-5.26001 -0.68301,-5.04895 -0.92999,-4.85706 -1.17502,-4.59399 -1.40198,-4.349 -1.578,-4.04999 -1.806,-3.75201 -1.96401,-3.40198 -2.12199,-3.049988 -2.29702,-2.64801 -0.94599,-0.859016 -5.12,-6.189995 -5.61099,-40.607971 0,0 z m -139.9202,74.903989 -0.07,0.036 -0.0877,0 -0.07011,0.017 -0.07019,0 -0.157898,0 -0.1577,0 -0.157799,0.035 -0.140312,0.018 -0.31559,0.0519 -0.0701,0.018 -0.105209,0.052 -0.15789,0.053 -0.140312,0.035 -0.1577,0.053 -0.157799,0.07 -0.157898,0.087 -0.280502,0.12299 -0.140289,0.10498 -0.140213,0.10602 -0.280487,0.15698 -0.578712,0.42102 -0.315498,0.28101 -0.280487,0.263 -0.5261,0.54297 -1.052101,1.35003 -1.0168,1.61402 -0.91201,1.841 -0.876503,2.086 -0.753998,2.26196 -0.718903,2.47199 -1.104599,5.453 -0.701401,6.06702 -0.263,6.43499 0.263,6.45203 0.701401,6.06696 1.104599,5.453 0.718903,2.47205 0.753998,2.26196 0.876503,2.08703 0.228111,0.456 -0.03501,0.24499 -0.0877,3.612 0.140198,3.77002 0.420799,3.89197 0.6838,4.06799 0.964401,4.10303 1.227402,4.20801 1.507904,4.24298 1.788406,4.22601 2.016388,4.138 2.191803,3.90998 2.314104,3.66497 2.473,3.40101 2.55999,3.13903 2.64701,2.83997 2.73499,2.54303 2.75301,2.24402 2.77099,1.87598 2.78701,1.526 2.75299,1.19201 2.735,0.78901 2.666,0.42095 2.61199,-0.035 1.24501,-0.15802 1.22699,-0.263 1.19301,-0.38598 1.174,-0.49103 1.123,-0.59595 1.052,-0.70105 0.99899,-0.80695 0.929,-0.89404 1.666,-2.01697 1.42002,-2.367 1.15799,-2.64704 0.91099,-2.94598 0.64901,-3.19098 0.36801,-3.41899 0.10598,-3.61201 -0.14099,-3.77002 -0.421,-3.89197 -0.683,-4.06806 -0.96498,-4.10296 -1.22702,-4.20801 -1.508,-4.24402 -1.78799,-4.22498 -2.01702,-4.138 -2.15699,-3.90997 -2.349,-3.66504 -2.455,-3.401 -2.577,-3.13898 -2.63,-2.84002 -2.718,-2.54297 -2.753,-2.20905 -2.788,-1.91095 -2.788,-1.526 -2.77,-1.19201 -2.735,-0.78901 -2.683,-0.42102 -2.577,0.035 -1.263,0.15796 -1.227186,0.263 -0.876709,0.281 -0.01719,-0.088 -1.192215,-3.29602 -1.104797,-3.45502 -0.91169,-3.612 -0.753899,-3.76898 -0.578712,-3.80499 -0.333,-3.73505 -0.157799,-3.612 0,-3.52399 0.227798,-3.367 0.420799,-3.20801 0.105202,-0.49096 0.0877,-0.49103 0.157799,-0.92896 -0.0178,0 -0.03499,-0.036 -0.0179,0 -0.03501,0 -0.07019,0 -0.05281,0 4.12e-4,0 z m 209.07321,0.053 -0.035,0.035 -0.017,0 0.15802,0.92895 0.088,0.49103 0.10501,0.49097 0.42099,3.20904 0.22702,3.367 0,3.52399 -0.15704,3.612 -0.33298,3.73499 -0.57897,3.80401 -0.75403,3.76996 -0.91202,3.612 -1.10397,3.45404 -1.19303,3.297 -0.017,0.087 -0.87704,-0.27996 -1.22699,-0.263 -1.26196,-0.15802 -2.57801,-0.035 -2.68304,0.42096 -2.73496,0.789 -2.76998,1.19202 -2.78806,1.52502 -2.78796,1.91199 -2.75299,2.20898 -2.71805,2.542 -2.62995,2.841 -2.57705,3.138 -2.45499,3.40204 -2.34897,3.66394 -2.15704,3.91003 -2.01599,4.138 -1.78898,4.22602 -1.50802,4.24298 -1.22699,4.208 -0.96399,4.10297 -0.68401,4.06805 -0.421,3.89295 -0.14,3.76904 0.10501,3.612 0.368,3.41998 0.649,3.19098 0.91099,2.94501 1.15802,2.64801 1.41996,2.36699 1.66604,2.01599 0.92896,0.89502 0.99905,0.80597 1.052,0.70204 1.12299,0.59601 1.17401,0.49095 1.19299,0.38501 1.22699,0.263 1.24497,0.15802 2.61304,0.035 2.665,-0.42 2.73499,-0.789 2.75302,-1.19298 2.78799,-1.52502 2.76999,-1.87598 2.75302,-2.24501 2.73499,-2.54198 2.64801,-2.841 2.55997,-3.138 2.47201,-3.40204 2.31397,-3.664 2.19204,-3.90997 2.01596,-4.138 1.78901,-4.22601 1.50802,-4.24299 1.22702,-4.208 0.96497,-4.10303 0.68301,-4.06799 0.42102,-3.89301 0.13996,-3.76898 -0.087,-3.612 -0.035,-0.24597 0.22802,-0.456 0.87601,-2.086 0.75497,-2.26202 0.71805,-2.47198 1.10498,-5.45301 0.70102,-6.06703 0.263,-6.45201 -0.263,-6.435 -0.70102,-6.06697 -1.10498,-5.45299 -0.71805,-2.47198 -0.75497,-2.26203 -0.87601,-2.08703 -0.91201,-1.84096 -1.017,-1.61302 -1.052,-1.34999 -0.52601,-0.54399 -0.281,-0.263 -0.315,-0.28003 -0.57898,-0.42096 -0.28,-0.15802 -0.14002,-0.10498 -0.14096,-0.10504 -0.28003,-0.12299 -0.15802,-0.088 -0.15799,-0.07 -0.15799,-0.052 -0.14001,-0.035 -0.15799,-0.053 -0.10501,-0.053 -0.07,-0.017 -0.31601,-0.053 -0.14004,-0.017 -0.15799,-0.035 -0.15799,0 -0.15802,0 -0.07,0 -0.07,-0.018 -0.088,0 -0.07,-0.035 -0.052,0 -0.071,0 -0.035,0 -0.017,0 -0.001,0 3e-5,0 z m -105.71101,88.61603 -3.68199,0.20996 -3.56,0.56201 -3.45401,0.94599 -3.314,1.29803 -3.138,1.61298 -2.981,1.89404 c -9.71399,10.54895 -12.70099,21.099 -17.51599,31.64795 l -2.069,2.92804 -2.332,2.70099 -2.578,2.47198 -2.75301,2.20899 -2.98,1.89404 -3.13899,1.61298 c -11.44101,2.87597 -18.632,7.169 -24.86301,11.78302 l -2.57699,2.47198 -2.332,2.70001 -2.052,2.94599 -2.77001,5.29498 -0.561,1.21002 -1.20999,3.50702 -0.877,3.664 -0.56101,3.78699 -0.17499,3.90997 0.17499,3.89301 0.56101,3.80499 0.877,3.664 1.20999,3.50702 1.50801,3.33197 1.823,3.17304 2.052,2.92798 2.332,2.70098 2.57699,2.47205 2.753,2.20898 2.98101,1.91102 3.13799,1.596 3.31401,1.31501 c 6.521,3.32995 12.16899,3.39398 19.26999,0.61395 l 0.035,-0.053 2.069,-0.56097 3.314,-1.31501 3.138,-1.596 2.998,-1.91102 c 18.08801,-11.65301 38.071,-18.68701 69.224,1.508 l 2.981,1.91101 c 9.93401,6.62897 20.39801,6.12097 31.15701,1.61298 l 3.12097,-1.61298 2.999,-1.91101 2.75302,-2.21002 2.57699,-2.47199 2.31403,-2.70001 2.069,-2.92798 1.806,-3.17401 1.50797,-3.33099 1.22802,-3.50702 0.85901,-3.66498 0.56098,-3.80402 0.19302,-3.893 -0.19302,-3.90997 -0.56098,-3.78699 -0.85901,-3.66504 -1.22802,-3.50696 -1.50797,-3.33099 -1.806,-3.17401 -2.069,-2.94501 -2.31403,-2.70099 -2.57699,-2.47204 -2.75302,-2.20899 -2.999,-1.89398 -11.34396,-3.29602 -3.31401,-1.315 -3.13901,-1.61298 -2.97999,-1.89398 -2.75301,-2.20905 -2.577,-2.47198 -2.332,-2.70099 -2.052,-2.94501 -1.823,-3.156 -8.97799,-22.724 -2.069,-2.94599 -2.31401,-2.70001 -2.57799,-2.47302 -2.75301,-2.20898 -2.97999,-1.89301 -3.13901,-1.61298 -3.314,-1.29803 -3.45399,-0.94696 -3.57701,-0.56104 -3.664,-0.20996 0,0 z"
           id="path5127"
           style="fill:#000000;fill-rule:evenodd" />
      </g>
    </g>
  </g>
</svg>
